<svg width="349" height="91" viewBox="0 0 349 91" fill="none" xmlns="http://www.w3.org/2000/svg">
<path fill-rule="evenodd" clip-rule="evenodd" d="M6.11959e-06 21L15 33C29 45 58 70 87 82C116 94 145 94 175 82C204 70 233 45 262 42C291 38 320 56 334 65L349 73L349 3.05105e-05L334 2.91992e-05C320 2.79753e-05 291 2.544e-05 262 2.29048e-05C233 2.03695e-05 204 1.78342e-05 175 1.5299e-05C145 1.26763e-05 116 1.0141e-05 87 7.60578e-06C58 5.07052e-06 29 2.53526e-06 15 1.31134e-06L7.95547e-06 0L6.11959e-06 21Z" fill="#EFEFF9"/>
</svg>
