<svg width="1156" height="288" viewBox="0 0 1156 288" fill="none" xmlns="http://www.w3.org/2000/svg">
<path fill-rule="evenodd" clip-rule="evenodd" d="M1156 252L1128.06 222C1101.09 192 1046.18 132 991.27 144C935.397 156 880.487 240 825.577 246C770.667 252 715.757 180 660.847 126C605.937 72 550.063 36 495.153 60C440.243 84 385.333 168 330.423 180C275.513 192 220.603 132 164.73 138C109.82 144 54.91 216 27.9366 252L0 288L-2.51778e-05 9.508e-06L27.9366 7.0657e-06C54.91 4.70761e-06 109.82 -9.27799e-08 164.73 -4.89316e-06C220.603 -9.77776e-06 275.513 -1.45781e-05 330.423 -1.93785e-05C385.333 -2.41789e-05 440.243 -2.89793e-05 495.153 -3.37797e-05C550.063 -3.85801e-05 605.937 -4.34647e-05 660.847 -4.82651e-05C715.757 -5.30654e-05 770.667 -5.78658e-05 825.577 -6.26662e-05C880.487 -6.74666e-05 935.397 -7.2267e-05 991.27 -7.71516e-05C1046.18 -8.1952e-05 1101.09 -8.67523e-05 1128.06 -8.91104e-05L1156 -9.15527e-05L1156 252Z" fill="#EFEFF9"/>
</svg>
