<svg width="705" height="675" viewBox="0 0 705 675" fill="none" xmlns="http://www.w3.org/2000/svg">
<path opacity="0.65" fill-rule="evenodd" clip-rule="evenodd" d="M325.179 6.39623C395.094 18.1836 442.567 73.2906 495.097 117.725C541.243 156.76 580.564 198.141 611.424 248.527C650.301 312.004 730.906 381.217 696.768 447.002C661.193 515.555 539.223 479.191 470.334 520.406C408.203 557.578 396.446 651.128 325.179 669.318C250.753 688.315 168.36 657.176 107.579 612.996C47.9318 569.64 2.41209 503.29 0.0432255 432.987C-2.13722 368.275 78.8232 328.484 95.8776 265.707C115.149 194.771 53.6234 108.264 103.621 51.7237C152.815 -3.90885 248.905 -6.46327 325.179 6.39623Z" fill="#FFD8C7"/>
</svg>
