<svg width="190" height="37" viewBox="0 0 190 37" fill="none" xmlns="http://www.w3.org/2000/svg">
<circle cx="81.5" cy="18.5" r="17.5" fill="#8BD4F5"/>
<path d="M118.434 27.3584L118.378 18.5365L114.138 25.6161H111.237L106.997 18.8407V27.3584H101V8H106.412L112.772 18.3153L118.964 8H124.376L124.431 27.3584H118.434Z" fill="#312651"/>
<path d="M135.481 27.635C133.788 27.635 132.263 27.3031 130.906 26.6394C129.567 25.9572 128.516 25.0262 127.754 23.8462C126.991 22.6479 126.61 21.2928 126.61 19.781C126.61 18.2692 126.991 16.9233 127.754 15.7434C128.516 14.545 129.567 13.6139 130.906 12.9502C132.263 12.2865 133.788 11.9546 135.481 11.9546C137.191 11.9546 138.716 12.2865 140.055 12.9502C141.413 13.6139 142.463 14.545 143.207 15.7434C143.97 16.9233 144.351 18.2692 144.351 19.781C144.351 21.2928 143.97 22.6479 143.207 23.8462C142.463 25.0262 141.413 25.9572 140.055 26.6394C138.716 27.3031 137.191 27.635 135.481 27.635ZM135.481 22.7677C136.206 22.7677 136.801 22.5096 137.266 21.9934C137.731 21.4587 137.963 20.7212 137.963 19.781C137.963 18.8407 137.731 18.1125 137.266 17.5962C136.801 17.08 136.206 16.8219 135.481 16.8219C134.755 16.8219 134.16 17.08 133.695 17.5962C133.23 18.1125 132.998 18.8407 132.998 19.781C132.998 20.7212 133.23 21.4587 133.695 21.9934C134.16 22.5096 134.755 22.7677 135.481 22.7677Z" fill="#312651"/>
<path d="M152.321 13.8628C153.437 12.5907 155.083 11.9546 157.259 11.9546V17.4856C156.757 17.4119 156.292 17.375 155.864 17.375C153.707 17.375 152.628 18.4628 152.628 20.6383V27.3584H146.324V12.2312H152.321V13.8628Z" fill="#312651"/>
<path d="M170.696 26.833C169.747 27.3676 168.455 27.635 166.818 27.635C164.68 27.635 163.034 27.1279 161.881 26.1139C160.728 25.0815 160.152 23.542 160.152 21.4956V17.6239H158.059V13.0608H160.152V8.82965H166.456V13.0608H169.58V17.6239H166.456V21.4403C166.456 21.9012 166.577 22.2607 166.818 22.5188C167.06 22.7769 167.376 22.906 167.767 22.906C168.306 22.906 168.78 22.7677 169.189 22.4911L170.696 26.833Z" fill="#312651"/>
<path d="M189 12.2312L182.724 27.6626C181.924 29.6353 180.929 31.0181 179.739 31.8108C178.549 32.6036 177.089 33 175.36 33C174.504 33 173.639 32.8709 172.765 32.6128C171.91 32.3732 171.231 32.0505 170.729 31.6449L172.821 27.3584C173.137 27.5981 173.491 27.7917 173.881 27.9392C174.29 28.0867 174.681 28.1604 175.053 28.1604C175.741 28.1604 176.261 27.9576 176.615 27.552L170.199 12.2312H176.671L179.823 20.3341L183.031 12.2312H189Z" fill="#312651"/>
<path d="M34.2803 9.38977L27.9947 29H20.8952L17.7244 18.5225L14.3851 29H7.28566L1 9.38977H7.81882L11.2423 20.5396L14.8621 9.38977H20.9514L24.3748 20.6797L27.9947 9.38977H34.2803Z" fill="#312651"/>
<path d="M36.1026 13.676H42.4443V29H36.1026V13.676ZM39.2734 12.4434C38.1323 12.4434 37.2063 12.1445 36.4954 11.5469C35.8032 10.9306 35.4571 10.1555 35.4571 9.22168C35.4571 8.28786 35.8032 7.52213 36.4954 6.92448C37.2063 6.30816 38.1323 6 39.2734 6C40.4333 6 41.3593 6.28948 42.0515 6.86845C42.7437 7.44742 43.0897 8.19448 43.0897 9.10962C43.0897 10.0808 42.7437 10.8839 42.0515 11.5189C41.3593 12.1352 40.4333 12.4434 39.2734 12.4434Z" fill="#312651"/>
<path d="M52.6072 24.2935L51.597 25.3861V29H45.2553V8.21315H51.597V18.1303L56.0026 13.676H63.4949L57.1531 20.3155L64 29H56.3394L52.6072 24.2935Z" fill="#312651"/>
<path d="M80.6056 8C81.6948 8 82.662 8.17166 83.507 8.51499C84.3521 8.85831 85.0188 9.36376 85.507 10.0313C85.9953 10.6798 86.2394 11.4809 86.2394 12.4346C86.2394 13.7507 85.8545 14.8569 85.0845 15.7534C84.3146 16.6499 83.3568 17.4319 82.2113 18.0995L86.1268 21.9619C86.5023 21.3134 86.831 20.6362 87.1127 19.9305C87.3944 19.2057 87.6291 18.4809 87.8169 17.7561H92.1831C91.9014 18.8243 91.4883 19.9687 90.9437 21.1894C90.3991 22.4101 89.7042 23.5545 88.8592 24.6226L93 28.7139H87.8169L86.2394 27.1403C85.4319 27.7125 84.5305 28.1703 83.5352 28.5136C82.5399 28.8379 81.4601 29 80.2958 29C78.0047 29 76.2113 28.4659 74.9155 27.3978C73.6385 26.3297 73 24.9278 73 23.1921C73 21.7425 73.3286 20.5886 73.9859 19.7302C74.6432 18.8529 75.5446 18.0804 76.6901 17.4128C75.9577 16.5545 75.4413 15.7629 75.1408 15.0381C74.8592 14.3134 74.7183 13.5409 74.7183 12.7207C74.7183 11.748 74.9624 10.9087 75.4507 10.203C75.9577 9.49728 76.6526 8.95368 77.5352 8.57221C78.4366 8.19074 79.4601 8 80.6056 8ZM80.5775 11.2902C80.108 11.2902 79.6573 11.4142 79.2254 11.6621C78.8122 11.891 78.6056 12.3392 78.6056 13.0068C78.6056 13.4837 78.7183 13.9414 78.9437 14.3801C79.1878 14.8188 79.507 15.267 79.9014 15.7248C80.6901 15.2861 81.2911 14.8474 81.7042 14.4087C82.1362 13.97 82.3521 13.4646 82.3521 12.8924C82.3521 12.3202 82.1643 11.9101 81.7887 11.6621C81.4131 11.4142 81.0094 11.2902 80.5775 11.2902ZM79.1408 19.9591C78.615 20.3597 78.1925 20.7888 77.8732 21.2466C77.5728 21.6853 77.4225 22.2003 77.4225 22.7916C77.4225 23.6117 77.723 24.2602 78.3239 24.7371C78.9249 25.1948 79.6761 25.4237 80.5775 25.4237C81.1784 25.4237 81.7418 25.3474 82.2676 25.1948C82.7934 25.0422 83.2723 24.8324 83.7042 24.5654L79.1408 19.9591Z" fill="white"/>
</svg>
